<svg width="125" height="61" viewBox="0 0 125 61" fill="none" xmlns="http://www.w3.org/2000/svg">
<path d="M58.3358 21.5191C58.6911 21.1264 59.1462 20.8396 59.6573 20.69C60.1623 20.5529 60.6859 20.478 61.2096 20.478H65.9285C66.6516 20.4967 67.2501 19.9295 67.2688 19.2064C67.2875 18.4832 66.7202 17.8848 65.9971 17.8661C65.9722 17.8661 65.9535 17.8661 65.9285 17.8661H61.0537C60.1747 17.8661 59.2958 18.0157 58.4604 18.3087C57.6064 18.6017 56.8272 19.0817 56.1789 19.7051C55.5181 20.3471 54.9695 21.17 54.5519 22.1799C54.1342 23.1897 53.916 24.4116 53.9222 25.8391C53.9222 27.2729 54.128 28.4885 54.5332 29.4796C54.9446 30.477 55.4807 31.2874 56.1477 31.9171C56.7898 32.5342 57.5628 33.0017 58.4106 33.2823C59.2521 33.5628 60.1311 33.7062 61.0163 33.7062H65.9285C66.6516 33.7249 67.2501 33.1576 67.2688 32.4345C67.2875 31.7113 66.7202 31.1129 65.9971 31.0942C65.9722 31.0942 65.9535 31.0942 65.9285 31.0942H61.247C60.7233 31.0942 60.1997 31.0319 59.6947 30.9009C59.1898 30.77 58.7285 30.5145 58.3545 30.1529C57.9555 29.7851 57.6438 29.2615 57.4132 28.5757C57.1825 27.8963 57.0641 27.0111 57.0641 25.9077C57.0641 24.7794 57.1825 23.8692 57.4132 23.1648C57.6438 22.4853 57.9493 21.9243 58.3358 21.5191Z" fill="#D7062A"/>
<path d="M71.2397 32.1227C71.9816 32.7835 72.8605 33.276 73.8081 33.5627C75.9026 34.1736 78.1219 34.1736 80.2164 33.5627C81.1639 33.276 82.0429 32.7835 82.7847 32.1227C83.5141 31.4682 84.0876 30.6266 84.5115 29.5918C84.9354 28.557 85.1473 27.3102 85.1411 25.8515C85.1411 24.3928 84.9354 23.1398 84.5302 22.0926C84.1188 21.0453 83.5515 20.185 82.8221 19.5242C82.0803 18.851 81.2076 18.3523 80.2538 18.0468C78.1655 17.411 75.94 17.411 73.8517 18.0468C72.8979 18.3523 72.0252 18.8572 71.2834 19.5242C70.554 20.1913 69.9805 21.0453 69.5566 22.0926C69.139 23.1398 68.927 24.3928 68.927 25.8515C68.927 27.3102 69.1327 28.557 69.5379 29.5918C69.9369 30.6266 70.5104 31.4744 71.2397 32.1227ZM73.2907 21.2635C74.1135 20.4094 75.354 19.9793 77.0122 19.9793C78.6767 19.9793 79.9172 20.4094 80.7463 21.2635C81.5816 22.1175 81.993 23.651 81.993 25.8702C81.993 26.9923 81.8871 27.9149 81.6689 28.638C81.4507 29.3674 81.139 29.9534 80.7276 30.396C80.3099 30.851 79.7676 31.1752 79.1754 31.3373C78.4834 31.5243 77.7665 31.6116 77.0434 31.5991C76.314 31.6116 75.5847 31.5243 74.874 31.3373C74.2756 31.1752 73.7333 30.851 73.3031 30.396C72.8792 29.9471 72.5675 29.3612 72.3618 28.638C72.1561 27.9149 72.0626 26.9923 72.0626 25.8702C72.0626 23.651 72.474 22.1175 73.2907 21.2635Z" fill="#D7062A"/>
<path d="M6.77002 33.7123H24.3244C24.9789 33.7123 25.6272 33.6438 26.2631 33.5004C26.8678 33.3695 27.435 33.1139 27.9337 32.7523C28.4324 32.3783 28.8376 31.8796 29.1057 31.3123C29.3987 30.7139 29.5483 29.9534 29.5483 29.0308C29.5483 28.1393 29.4049 27.3913 29.1244 26.7866C28.8688 26.2193 28.4761 25.7206 27.9774 25.3466C27.4724 24.9788 26.8989 24.717 26.288 24.5798C25.621 24.424 24.9415 24.3492 24.2558 24.3492H21.4942C20.7275 24.3492 20.1415 24.1996 19.7301 23.8879C19.3249 23.5824 19.1129 23.0837 19.1129 22.398C19.1129 21.6562 19.3436 21.1575 19.8049 20.8832C20.2662 20.6151 20.9083 20.478 21.7249 20.478H27.248C27.9711 20.4593 28.5384 19.8609 28.5197 19.1377C28.501 18.4458 27.94 17.8847 27.248 17.866H21.9181C21.2449 17.866 20.5654 17.9408 19.9046 18.078C19.2501 18.2089 18.6267 18.4645 18.0656 18.826C17.5108 19.1876 17.0495 19.6738 16.7254 20.2411C16.3825 20.8333 16.208 21.5564 16.208 22.4292C16.208 23.3268 16.3638 24.0687 16.6693 24.6546C16.956 25.2157 17.3675 25.7019 17.8786 26.0697C18.3836 26.4313 18.9633 26.6931 19.568 26.8302C20.1976 26.9861 20.8459 27.0609 21.5005 27.0609H24.1872C24.9291 27.0609 25.515 27.1918 25.9514 27.4474C26.3878 27.703 26.6059 28.2515 26.6059 29.0931C26.6059 29.5045 26.5311 29.8349 26.3753 30.0905C26.2257 30.3461 26.0137 30.558 25.7644 30.7077C25.5026 30.8635 25.2158 30.9632 24.9228 31.0131C24.6174 31.063 24.3119 31.0879 24.0002 31.0879H8.3534C8.15392 31.0879 7.99808 30.9321 7.99184 30.7326C7.99184 30.7326 7.99184 30.7326 7.99184 30.7264V12.1247C7.99184 9.52523 10.0989 7.42444 12.6921 7.41821H44.4408C45.2076 7.41821 45.831 6.79483 45.831 6.02807C45.831 5.26132 45.2076 4.63794 44.4408 4.63794H12.6797C8.54665 4.63794 5.19287 7.99172 5.19287 12.131V32.1477C5.19287 33.0204 5.89106 33.7248 6.76379 33.7248C6.77002 33.7123 6.77002 33.7123 6.77002 33.7123Z" fill="#D7062A"/>
<path d="M111.996 4.63794H51.2541C49.7705 4.63794 48.5611 5.84106 48.5611 7.33094V31.1066H38.3315C37.8328 31.1066 37.3279 31.0567 36.8416 30.9508C36.3616 30.8573 35.919 30.6453 35.5388 30.3399C35.1273 30.0032 34.7907 29.5793 34.5601 29.0993C34.292 28.5757 34.1174 27.8962 34.0426 27.0484H44.478C45.3819 27.0484 46.1237 26.3315 46.1549 25.4214C46.1549 25.3715 46.1549 25.3217 46.1549 25.278C46.0988 22.8344 45.4879 20.958 44.3222 19.6427C43.0879 18.2588 41.199 17.5731 38.6432 17.5731C37.5897 17.5606 36.5362 17.7289 35.5388 18.0718C34.6162 18.3897 33.7746 18.9071 33.0764 19.5866C32.3845 20.2661 31.8421 21.1201 31.4494 22.1549C31.0504 23.1897 30.8572 24.424 30.8572 25.8578C30.8572 27.2915 31.0567 28.5071 31.4494 29.5045C31.8484 30.5019 32.3845 31.3123 33.0577 31.9357C33.7247 32.5529 34.5164 33.0204 35.3767 33.3009C36.2681 33.5877 37.2032 33.731 38.1382 33.7248H49.091C50.4936 33.7248 51.6344 32.584 51.6344 31.1814V7.76107C51.6406 7.56782 51.7965 7.41821 51.9897 7.41821H111.996C114.596 7.41821 116.703 9.52523 116.703 12.1247V26.9736C116.721 27.7404 117.357 28.3513 118.13 28.3326C118.872 28.3139 119.471 27.7154 119.489 26.9736V12.1247C119.483 7.98549 116.135 4.63794 111.996 4.63794ZM35.5699 21.0951C36.3865 20.4842 37.4525 20.1788 38.7554 20.1725C40.1642 20.1725 41.199 20.5154 41.8661 21.2074C42.5268 21.8993 42.9133 22.9965 43.0131 24.505H34.0738C34.2546 22.8531 34.7471 21.7123 35.5699 21.0951Z" fill="#D7062A"/>
<path d="M117.887 31.1067H109.453V25.0038C109.453 22.4978 108.942 20.6838 107.919 19.5554C106.897 18.4334 105.289 17.8723 103.088 17.8723H93.5754C91.3749 17.8723 89.7604 18.4334 88.7443 19.5617C87.7219 20.6838 87.2107 22.4978 87.2107 25.0038V51.3478L77.3302 44.0605C77.0684 43.8859 76.7629 43.7924 76.445 43.7924H12.6795C10.08 43.7862 7.97926 41.6854 7.97303 39.0859V37.8454C7.95433 37.0786 7.31848 36.4677 6.54549 36.4864C5.80367 36.5051 5.20522 37.1036 5.18652 37.8454V39.0859C5.18652 43.2189 8.5403 46.5727 12.6733 46.5727H75.0424C75.3229 46.5727 75.6034 46.6537 75.8403 46.8096C75.8528 46.8158 75.8652 46.8283 75.8777 46.8407L75.9089 46.8594L87.0985 55.1067C88.0398 55.7426 89.3178 55.4932 89.9536 54.5519C90.1843 54.2091 90.3027 53.8101 90.3027 53.3987V32.4095H90.2715V25.3529C90.2653 24.6173 90.3089 23.8817 90.4087 23.1461C90.496 22.5227 90.6643 22.0053 90.9074 21.5939C91.1505 21.1887 91.5121 20.8645 91.9422 20.6713C92.3848 20.4656 92.9708 20.3658 93.6814 20.3658H96.7921V32.1789C96.817 33.0267 97.5277 33.6874 98.3755 33.6625C99.1859 33.6376 99.8342 32.9893 99.8591 32.1789V20.3658H102.964C103.68 20.3658 104.26 20.4718 104.709 20.6713C105.139 20.8645 105.507 21.1825 105.744 21.5939C105.987 22.0053 106.149 22.5227 106.243 23.1461C106.336 23.8755 106.38 24.611 106.38 25.3529V32.0355C106.38 32.9643 107.134 33.7124 108.057 33.7124H116.335C116.528 33.7186 116.684 33.8745 116.69 34.0677V39.0859C116.69 41.6792 114.59 43.7862 111.996 43.7924H94.4419C93.669 43.7924 93.0518 44.422 93.0518 45.1888C93.0518 45.8994 93.5942 46.4979 94.3048 46.5727H111.996C116.129 46.5727 119.483 43.2189 119.483 39.0859V32.6963C119.477 31.8173 118.766 31.1067 117.887 31.1067Z" fill="#D7062A"/>
</svg>
